<svg width="16" height="18" viewBox="0 0 16 18" fill="none" xmlns="http://www.w3.org/2000/svg">
<path d="M14.104 6.89017C14.104 6.89017 13.6515 12.5027 13.389 14.8668C13.264 15.996 12.5665 16.6577 11.424 16.6785C9.24987 16.7177 7.0732 16.7202 4.89986 16.6743C3.8007 16.6518 3.11486 15.9818 2.99236 14.8727C2.7282 12.4877 2.2782 6.89017 2.2782 6.89017" stroke="#130F26" stroke-width="1.5" stroke-linecap="round" stroke-linejoin="round"/>
<path d="M15.2568 4.19975H1.12512" stroke="#130F26" stroke-width="1.5" stroke-linecap="round" stroke-linejoin="round"/>
<path d="M12.5337 4.19975C11.8796 4.19975 11.3162 3.73725 11.1879 3.09642L10.9854 2.08308C10.8604 1.61558 10.4371 1.29225 9.95457 1.29225H6.42707C5.94457 1.29225 5.52123 1.61558 5.39623 2.08308L5.19373 3.09642C5.0654 3.73725 4.50207 4.19975 3.8479 4.19975" stroke="#130F26" stroke-width="1.5" stroke-linecap="round" stroke-linejoin="round"/>
</svg>
