<svg width="14" height="14" viewBox="0 0 14 14" fill="none" xmlns="http://www.w3.org/2000/svg">
<path d="M5.0959 12.8548V10.8102C5.09589 10.2921 5.51719 9.87115 6.03904 9.86789H7.95515C8.47933 9.86789 8.90426 10.2898 8.90426 10.8102V12.8488C8.90425 13.2982 9.26943 13.6634 9.72204 13.6667H11.0293C11.6398 13.6682 12.2259 13.4285 12.6582 13.0005C13.0905 12.5724 13.3334 11.9912 13.3334 11.385V5.57724C13.3334 5.0876 13.1148 4.62315 12.7365 4.30901L8.2954 0.782856C7.51909 0.166092 6.41033 0.186016 5.65701 0.830266L1.31142 4.30901C0.915242 4.61389 0.67845 5.07972 0.666748 5.57724V11.3791C0.666748 12.6425 1.69834 13.6667 2.97086 13.6667H4.24827C4.4662 13.6682 4.67574 13.5834 4.8304 13.431C4.98505 13.2785 5.07203 13.0711 5.07203 12.8548H5.0959Z" fill="#5570F1"/>
</svg>
