<svg width="20" height="20" viewBox="0 0 20 20" fill="none" xmlns="http://www.w3.org/2000/svg">
<path fill-rule="evenodd" clip-rule="evenodd" d="M7.99293 12.6723C11.0671 12.6723 13.6946 13.1382 13.6946 14.999C13.6946 16.8598 11.0846 17.339 7.99293 17.339C4.91793 17.339 2.29126 16.8773 2.29126 15.0157C2.29126 13.154 4.90043 12.6723 7.99293 12.6723Z" stroke="#130F26" stroke-width="1.5" stroke-linecap="round" stroke-linejoin="round"/>
<path fill-rule="evenodd" clip-rule="evenodd" d="M7.99289 10.0165C5.97456 10.0165 4.33789 8.38066 4.33789 6.36233C4.33789 4.34399 5.97456 2.70816 7.99289 2.70816C10.0104 2.70816 11.6471 4.34399 11.6471 6.36233C11.6546 8.37316 10.0296 10.009 8.01872 10.0165H7.99289Z" stroke="#130F26" stroke-width="1.5" stroke-linecap="round" stroke-linejoin="round"/>
<path d="M13.7358 9.06799C15.07 8.88049 16.0975 7.73549 16.1 6.34966C16.1 4.98382 15.1042 3.85049 13.7983 3.63632" stroke="#130F26" stroke-width="1.5" stroke-linecap="round" stroke-linejoin="round"/>
<path d="M15.4961 12.2768C16.7886 12.4693 17.6911 12.9227 17.6911 13.856C17.6911 14.4985 17.2661 14.9152 16.5794 15.176" stroke="#130F26" stroke-width="1.5" stroke-linecap="round" stroke-linejoin="round"/>
</svg>
